<mxfile host="65bd71144e">
    <diagram id="fvQrUP8hThEVy_PcrRIc" name="Page-1">
        <mxGraphModel dx="590" dy="277" grid="1" gridSize="10" guides="1" tooltips="1" connect="1" arrows="1" fold="1" page="1" pageScale="1" pageWidth="850" pageHeight="1100" math="0" shadow="0">
            <root>
                <mxCell id="0"/>
                <mxCell id="1" parent="0"/>
                <mxCell id="vDe9gCnrkB2ip9gjzLAA-1" value="" style="rounded=0;whiteSpace=wrap;html=1;fillColor=#115FF3;strokeColor=#6c8ebf;" parent="1" vertex="1">
                    <mxGeometry width="850" height="70" as="geometry"/>
                </mxCell>
                <mxCell id="vDe9gCnrkB2ip9gjzLAA-2" value="Dashboard" style="text;html=1;strokeColor=none;fillColor=none;align=center;verticalAlign=middle;whiteSpace=wrap;rounded=0;fontColor=#F1F8F0;" parent="1" vertex="1">
                    <mxGeometry x="140" y="20" width="90" height="30" as="geometry"/>
                </mxCell>
                <mxCell id="vDe9gCnrkB2ip9gjzLAA-3" value="Logout" style="text;html=1;strokeColor=none;fillColor=none;align=center;verticalAlign=middle;whiteSpace=wrap;rounded=0;fontColor=#F1F8F0;" parent="1" vertex="1">
                    <mxGeometry x="650" y="20" width="60" height="30" as="geometry"/>
                </mxCell>
                <mxCell id="vDe9gCnrkB2ip9gjzLAA-6" value="" style="rounded=1;whiteSpace=wrap;html=1;" parent="1" vertex="1">
                    <mxGeometry x="460" y="140" width="257.5" height="220" as="geometry"/>
                </mxCell>
                <mxCell id="vDe9gCnrkB2ip9gjzLAA-7" value="" style="rounded=1;whiteSpace=wrap;html=1;" parent="1" vertex="1">
                    <mxGeometry x="80" y="400" width="650" height="220" as="geometry"/>
                </mxCell>
                <mxCell id="vDe9gCnrkB2ip9gjzLAA-8" value="&lt;h1&gt;Join Game&lt;/h1&gt;&lt;p&gt;Click here to enter the game passcode and start playing Jeopardy.&lt;/p&gt;" style="text;html=1;strokeColor=none;fillColor=none;spacing=5;spacingTop=-20;whiteSpace=wrap;overflow=hidden;rounded=0;" parent="1" vertex="1">
                    <mxGeometry x="500" y="190" width="190" height="120" as="geometry"/>
                </mxCell>
                <mxCell id="vDe9gCnrkB2ip9gjzLAA-9" value="&lt;h1&gt;Scoreboard&lt;/h1&gt;&lt;p&gt;GameTitle : Earnings : Place&lt;/p&gt;" style="text;html=1;strokeColor=none;fillColor=none;spacing=5;spacingTop=-20;whiteSpace=wrap;overflow=hidden;rounded=0;" parent="1" vertex="1">
                    <mxGeometry x="310" y="460" width="200" height="120" as="geometry"/>
                </mxCell>
                <mxCell id="vDe9gCnrkB2ip9gjzLAA-10" value="onClick of Join Game square will take you to the respective component" style="text;html=1;strokeColor=none;fillColor=none;align=center;verticalAlign=middle;whiteSpace=wrap;rounded=0;" parent="1" vertex="1">
                    <mxGeometry x="503.75" y="90" width="170" height="30" as="geometry"/>
                </mxCell>
                <mxCell id="vDe9gCnrkB2ip9gjzLAA-12" value="" style="rounded=0;whiteSpace=wrap;html=1;fillColor=#115FF3;strokeColor=#6c8ebf;" parent="1" vertex="1">
                    <mxGeometry y="640" width="850" height="70" as="geometry"/>
                </mxCell>
                <mxCell id="vDe9gCnrkB2ip9gjzLAA-13" value="About Us" style="text;html=1;strokeColor=none;fillColor=none;align=center;verticalAlign=middle;whiteSpace=wrap;rounded=0;fontColor=#F1F8F0;" parent="1" vertex="1">
                    <mxGeometry x="640" y="660" width="60" height="30" as="geometry"/>
                </mxCell>
                <mxCell id="vDe9gCnrkB2ip9gjzLAA-14" value="Privacy Policy" style="text;html=1;strokeColor=none;fillColor=none;align=center;verticalAlign=middle;whiteSpace=wrap;rounded=0;fontColor=#F1F8F0;" parent="1" vertex="1">
                    <mxGeometry x="385" y="660" width="80" height="30" as="geometry"/>
                </mxCell>
                <mxCell id="vDe9gCnrkB2ip9gjzLAA-15" value="Â©Copyright" style="text;html=1;strokeColor=none;fillColor=none;align=center;verticalAlign=middle;whiteSpace=wrap;rounded=0;fontColor=#F1F8F0;" parent="1" vertex="1">
                    <mxGeometry x="120" y="660" width="80" height="30" as="geometry"/>
                </mxCell>
                <mxCell id="4" value="" style="rounded=1;whiteSpace=wrap;html=1;" vertex="1" parent="1">
                    <mxGeometry x="80" y="140" width="257.5" height="220" as="geometry"/>
                </mxCell>
                <mxCell id="5" value="&lt;h1&gt;User Info&lt;/h1&gt;&lt;h1&gt;&lt;p style=&quot;font-size: 12px ; font-weight: 400&quot;&gt;Picture, username, etc.&lt;/p&gt;&lt;/h1&gt;" style="text;html=1;strokeColor=none;fillColor=none;spacing=5;spacingTop=-20;whiteSpace=wrap;overflow=hidden;rounded=0;" vertex="1" parent="1">
                    <mxGeometry x="130" y="190" width="190" height="120" as="geometry"/>
                </mxCell>
            </root>
        </mxGraphModel>
    </diagram>
</mxfile>